<svg width="20" height="25" viewBox="0 0 20 25" fill="none" xmlns="http://www.w3.org/2000/svg">
<g id="icn_pt_collecte">
<path id="Shape" fill-rule="evenodd" clip-rule="evenodd" d="M9.91871 14.1657C7.34271 14.1657 5.24701 12.07 5.24701 9.49403C5.24701 6.91802 7.34271 4.82233 9.91871 4.82233C12.4947 4.82233 14.5904 6.91802 14.5904 9.49403C14.5904 12.07 12.4947 14.1657 9.91871 14.1657ZM13.6561 9.49403C13.6561 7.43319 11.9796 5.75667 9.91871 5.75667C7.85787 5.75667 6.18135 7.43319 6.18135 9.49403C6.18135 11.5549 7.85787 13.2314 9.91871 13.2314C11.9796 13.2314 13.6561 11.5549 13.6561 9.49403Z" fill="black"/>
<path id="Path" d="M7.70645 1.01446C3.75776 2.00489 1 5.49687 1 9.50631C1 13.1606 2.27748 14.6559 9.54319 24.174C9.63193 24.2902 9.77092 24.3585 9.91871 24.3585C10.0665 24.3585 10.2055 24.2902 10.2942 24.174C17.5587 14.6577 18.8374 13.1594 18.8374 9.50631C18.8374 5.49687 16.0797 2.00489 12.131 1.01446C11.8798 0.951583 11.6242 1.10041 11.56 1.34725C11.496 1.59409 11.6476 1.84525 11.8988 1.90831C15.4313 2.79424 17.8986 5.91884 17.8986 9.50631C17.8986 12.7779 16.8516 14.0512 9.91871 23.1286C2.98856 14.0541 1.93881 12.781 1.93881 9.50631C1.93881 5.91884 4.40613 2.79424 7.93859 1.90831C8.18998 1.84525 8.34143 1.59409 8.27744 1.34725C8.21326 1.10041 7.95766 0.951403 7.70645 1.01446Z" fill="black" stroke="black" stroke-width="0.5"/>
</g>
</svg>
