<svg width="24" height="24" viewBox="0 0 24 24" fill="none" xmlns="http://www.w3.org/2000/svg">
<path d="M11.7732 1C6.94506 1 3 4.94506 3 9.77318C3 12.9012 4.46241 16.1315 7.28509 19.1588C9.35984 21.4035 11.4332 22.7291 11.5355 22.7968L11.7733 23L12.0455 22.83C12.1478 22.7622 14.188 21.3676 16.2613 19.0896C19.0493 16.0293 20.5464 12.8337 20.5464 9.80639C20.5464 4.94358 16.6013 1 11.7732 1ZM11.7732 21.742C11.1609 21.2997 9.56297 20.1441 7.99814 18.4439C6.1957 16.4715 4.0201 13.3781 4.0201 9.77312C4.0201 5.48802 7.48809 2.02003 11.7732 2.02003C16.0583 2.02003 19.5263 5.48802 19.5263 9.77312C19.5263 15.757 13.168 20.7219 11.7732 21.742ZM11.7732 5.93047C9.83527 5.93047 8.27051 7.49517 8.27051 9.43315C8.27051 11.3711 9.8352 12.9688 11.7732 12.9688C13.7112 12.9688 15.2759 11.4041 15.2759 9.46613C15.2759 7.52815 13.7112 5.93047 11.7732 5.93047ZM11.7732 11.9487C10.4131 11.9487 9.29067 10.8263 9.29067 9.4662C9.29067 8.10607 10.4131 6.98369 11.7732 6.98369C13.1333 6.98369 14.2557 8.10607 14.2557 9.4662C14.2557 10.8263 13.1333 11.9487 11.7732 11.9487Z" fill="black" stroke="black" stroke-width="0.3"/>
</svg>
